<svg xmlns="http://www.w3.org/2000/svg" viewBox="0 0 119.55 135.35"><defs><style>.cls-1{fill:#ffe2bb;}.cls-2{fill:#329359;}.cls-3{fill:#ff8f3b;}.cls-4{fill:#ed8733;}</style></defs><title>Asset 5</title><g id="Layer_2" data-name="Layer 2"><g id="Layer_1-2" data-name="Layer 1"><path class="cls-1" d="M100.73,41.5c0,23.24-21.39,41.68-47.77,41.19S9,63.61,13.65,41.19,39.7.34,61.41,0,100.73,18.25,100.73,41.5Z"/><polygon class="cls-2" points="67.3 27.66 72.16 31.59 78.36 25.58 72.58 20.67 67.3 27.66"/><path class="cls-3" d="M61.8,53.13c-13.31,8.62-21.2,14.54-27.9,9.72-4.65-4.91,1.53-15.37,11.09-25,9.92-10.83,16.58-18.76,26.22-10.19C81.49,36.32,73.4,45,61.8,53.13Z"/><path class="cls-2" d="M74.5,21.64a4.18,4.18,0,0,1-4.1,4,3.63,3.63,0,0,1-3.72-3.91,4.32,4.32,0,0,1,4.1-4A3.71,3.71,0,0,1,74.5,21.64Z"/><path class="cls-2" d="M80.18,23.73a4,4,0,0,1,0,5.65,4.09,4.09,0,0,1-5.72,0,4,4,0,0,1,.17-5.63A3.92,3.92,0,0,1,80.18,23.73Z"/><path class="cls-2" d="M79.38,21.57a4.07,4.07,0,0,1-4,4,3.72,3.72,0,0,1-3.8-3.93,4.2,4.2,0,0,1,4-4A3.8,3.8,0,0,1,79.38,21.57Z"/><path class="cls-4" d="M33.6,62.46a3.68,3.68,0,0,0,.3.39c6.7,4.82,14.59-1.1,27.9-9.72C71.66,46.23,79,39,74.63,31.67,61.3,49.69,43,58.83,33.6,62.46Z"/><path class="cls-3" d="M24.65,97.85l-4.95,23.2a9.32,9.32,0,0,0,3.77-2.35A12.42,12.42,0,0,0,26,113.9h2.1a17,17,0,0,1-1.78,4.15,11.78,11.78,0,0,1-2.22,2.7,10.18,10.18,0,0,1-2.45,1.62,13.82,13.82,0,0,1-2.4.88l-.75,3.6a13.23,13.23,0,0,1-1.58,4.35,9.13,9.13,0,0,1-2.25,2.57A6.74,6.74,0,0,1,12.1,135a11,11,0,0,1-2.6.33,6.54,6.54,0,0,1-3.95-1.2A4.22,4.22,0,0,1,3.9,130.5a5.09,5.09,0,0,1,.75-2.75,8,8,0,0,1,1.92-2.1,12.58,12.58,0,0,1,2.63-1.53c1-.41,1.92-.77,2.85-1.07L13,118.8a11.59,11.59,0,0,1-2.62,2.35,6.64,6.64,0,0,1-3.73,1,7.11,7.11,0,0,1-2.48-.43,5.73,5.73,0,0,1-2.12-1.37,6.66,6.66,0,0,1-1.5-2.48A11.08,11.08,0,0,1,0,114.1a18.57,18.57,0,0,1,.35-3.43,21.6,21.6,0,0,1,1-3.67,20.89,20.89,0,0,1,1.75-3.55,13.67,13.67,0,0,1,2.5-3,12,12,0,0,1,3.23-2.08,9.9,9.9,0,0,1,4-.77,11.74,11.74,0,0,1,1.28.07,4.08,4.08,0,0,1,1.25.35,3.27,3.27,0,0,1,1,.78,2.86,2.86,0,0,1,.57,1.4l.5-2.35Zm-18,32a1.81,1.81,0,0,0,.42,1.1,1.52,1.52,0,0,0,1.28.55,2.15,2.15,0,0,0,1.6-1.1,9.18,9.18,0,0,0,1.3-3.35l.3-1.45c-.63.23-1.25.49-1.85.77a8.38,8.38,0,0,0-1.57,1,4.65,4.65,0,0,0-1.08,1.15A2.5,2.5,0,0,0,6.65,129.8Zm7.75-29.1a3.94,3.94,0,0,0-2.9,1.37,12.28,12.28,0,0,0-2.2,3.33,20.67,20.67,0,0,0-1.4,4.15,17.91,17.91,0,0,0-.5,3.85,7,7,0,0,0,.27,2.22,3.14,3.14,0,0,0,.65,1.15,1.51,1.51,0,0,0,.81.45,4.48,4.48,0,0,0,.77.08,4.2,4.2,0,0,0,2.48-1.1,5.65,5.65,0,0,0,1.87-3.3l2.2-10.35A2.93,2.93,0,0,0,16,101.4,1.67,1.67,0,0,0,14.4,100.7Z"/><path class="cls-3" d="M36.6,97.85,35.9,101a19.62,19.62,0,0,1,3-2.4,5.72,5.72,0,0,1,3.08-1,3,3,0,0,1,2.57,1.15,4.15,4.15,0,0,1,.88,2.6,4,4,0,0,1-.23,1.3,3.6,3.6,0,0,1-.67,1.17,3.34,3.34,0,0,1-1.13.85,3.52,3.52,0,0,1-1.57.33,1.71,1.71,0,0,1-1.43-.5,3,3,0,0,1-.52-1.08c-.1-.38-.19-.74-.28-1.07a.61.61,0,0,0-.67-.5,3.25,3.25,0,0,0-1.8.55,15.38,15.38,0,0,0-1.85,1.45l-4,19H24.1l5.3-25Z"/><path class="cls-3" d="M51.6,114.75c0,1.7.3,2.82.9,3.37a3.88,3.88,0,0,0,2.7.83,8.42,8.42,0,0,0,2.7-.4,10.14,10.14,0,0,0,2.25-1.08,12.42,12.42,0,0,0,2-1.6c.63-.61,1.27-1.27,1.9-2h1.7a28.37,28.37,0,0,1-2.4,3.4,18.51,18.51,0,0,1-3.05,3,15,15,0,0,1-3.75,2.1,12.49,12.49,0,0,1-4.55.8,8.43,8.43,0,0,1-5.71-1.85c-1.43-1.23-2.14-3.27-2.14-6.1a20.79,20.79,0,0,1,.3-3.3,27.18,27.18,0,0,1,.92-3.8,21.14,21.14,0,0,1,1.68-3.83,15.33,15.33,0,0,1,2.55-3.37,11.72,11.72,0,0,1,3.5-2.4,11,11,0,0,1,4.55-.9,7.77,7.77,0,0,1,2.72.4,4.28,4.28,0,0,1,1.7,1.07,3.52,3.52,0,0,1,.85,1.53,7,7,0,0,1,.23,1.8,8.56,8.56,0,0,1-.95,3.95,10.41,10.41,0,0,1-2.54,3.22,12.7,12.7,0,0,1-3.66,2.2,14,14,0,0,1-4.3,1c0,.37-.06.72-.08,1S51.6,114.45,51.6,114.75Zm7.7-12.41a3.24,3.24,0,0,0-.28-1.49,1,1,0,0,0-1-.55,2.64,2.64,0,0,0-1.85.9,10.17,10.17,0,0,0-1.7,2.31,20,20,0,0,0-1.43,3.21,30.56,30.56,0,0,0-1,3.63,6.85,6.85,0,0,0,2.77-.8,8.31,8.31,0,0,0,3.9-4.3A7.56,7.56,0,0,0,59.3,102.34Z"/><path class="cls-3" d="M70.8,114.75c0,1.7.3,2.82.9,3.37a3.88,3.88,0,0,0,2.7.83,8.42,8.42,0,0,0,2.7-.4,10.14,10.14,0,0,0,2.25-1.08,12.87,12.87,0,0,0,2-1.6c.63-.61,1.26-1.27,1.9-2H85a28.37,28.37,0,0,1-2.4,3.4,18.51,18.51,0,0,1-3,3,15.31,15.31,0,0,1-3.75,2.1,12.53,12.53,0,0,1-4.55.8,8.43,8.43,0,0,1-5.71-1.85c-1.43-1.23-2.14-3.27-2.14-6.1a20.79,20.79,0,0,1,.3-3.3,27.18,27.18,0,0,1,.92-3.8,21.14,21.14,0,0,1,1.68-3.83,15.33,15.33,0,0,1,2.55-3.37,11.59,11.59,0,0,1,3.5-2.4,11,11,0,0,1,4.55-.9,7.77,7.77,0,0,1,2.72.4,4.28,4.28,0,0,1,1.7,1.07,3.52,3.52,0,0,1,.85,1.53,7,7,0,0,1,.23,1.8,8.56,8.56,0,0,1-.95,3.95,10.56,10.56,0,0,1-2.54,3.22,12.7,12.7,0,0,1-3.66,2.2,14,14,0,0,1-4.3,1c0,.37-.06.72-.08,1S70.8,114.45,70.8,114.75Zm7.7-12.41a3.24,3.24,0,0,0-.28-1.49,1,1,0,0,0-1-.55,2.62,2.62,0,0,0-1.85.9,10.17,10.17,0,0,0-1.7,2.31,20,20,0,0,0-1.43,3.21,30.56,30.56,0,0,0-1,3.63,6.89,6.89,0,0,0,2.77-.8,8.31,8.31,0,0,0,3.9-4.3A7.56,7.56,0,0,0,78.5,102.34Z"/><path class="cls-3" d="M95.5,90l-1.7,7.9h3l-.4,2h-3l-3.2,15a6.67,6.67,0,0,0-.2,1.6,1.75,1.75,0,0,0,.5,1.45,2.44,2.44,0,0,0,1.55.4,3.81,3.81,0,0,0,2.7-1.25,7.21,7.21,0,0,0,1.8-3.15h2.1a17.24,17.24,0,0,1-2.45,4.87,12.66,12.66,0,0,1-2.85,2.8,8.31,8.31,0,0,1-2.83,1.28,11.34,11.34,0,0,1-2.37.3,5.41,5.41,0,0,1-3.8-1.43c-1-1-1.55-2.47-1.55-4.57a16,16,0,0,1,.4-3.25l3-14.05H84.55l.4-2H86.6L88.1,91Z"/><path class="cls-3" d="M107.15,97.85l-3.6,17a5.16,5.16,0,0,0-.15,1.25,3.39,3.39,0,0,0,.32,1.52,1.2,1.2,0,0,0,1.18.68,3.06,3.06,0,0,0,2.45-1.25,9.1,9.1,0,0,0,1.55-3.15l3.4-16.05h7.25l-6.1,29a13.23,13.23,0,0,1-1.58,4.35,8.8,8.8,0,0,1-2.3,2.57A7.24,7.24,0,0,1,107,135a11,11,0,0,1-2.6.33,6.48,6.48,0,0,1-2.2-.38,5.64,5.64,0,0,1-1.88-1.1A5.45,5.45,0,0,1,99,132.15a4.77,4.77,0,0,1-.5-2.2,5.93,5.93,0,0,1,.67-2.95,6.18,6.18,0,0,1,1.85-2,12,12,0,0,1,2.75-1.4c1-.38,2.18-.75,3.38-1.12l.5-2.2a7.6,7.6,0,0,1-3.2,2.37,9.46,9.46,0,0,1-2.9.53,5.41,5.41,0,0,1-3.8-1.43c-1-1-1.55-2.47-1.55-4.57a16,16,0,0,1,.4-3.25L100,97.85Zm-6,31.4a1.56,1.56,0,0,0,.57,1.1,2,2,0,0,0,1.43.55,2.42,2.42,0,0,0,1.6-.83,6.34,6.34,0,0,0,1.35-3.07l.6-3a21,21,0,0,0-2.2.87,8.57,8.57,0,0,0-1.75,1.1,5,5,0,0,0-1.18,1.43A3.79,3.79,0,0,0,101.2,129.25Z"/></g></g></svg>