<svg xmlns="http://www.w3.org/2000/svg" viewBox="0 0 96.51 88.41"><defs><style>.cls-1{fill:#d2dac3;}.cls-2{fill:#329359;}.cls-3{fill:#ff8f3b;}.cls-4{fill:#ed8733;}</style></defs><title>Asset 7</title><g id="Layer_2" data-name="Layer 2"><g id="Layer_1-2" data-name="Layer 1"><path class="cls-1" d="M96.51,44.36c0,24.85-23.5,44.57-52.49,44S-4.3,68,.82,44,29.45.36,53.3,0,96.51,19.51,96.51,44.36Z"/><polygon class="cls-2" points="59.03 30.52 63.89 34.45 70.09 28.44 64.31 23.54 59.03 30.52"/><path class="cls-3" d="M53.53,56c-13.3,8.63-21.2,14.55-27.9,9.73C21,60.81,27.16,50.34,36.72,40.77,46.65,29.94,53.31,22,62.94,30.58,73.22,39.19,65.13,47.84,53.53,56Z"/><path class="cls-2" d="M66.23,24.5a4.18,4.18,0,0,1-4.1,4,3.63,3.63,0,0,1-3.72-3.92,4.31,4.31,0,0,1,4.1-4A3.7,3.7,0,0,1,66.23,24.5Z"/><path class="cls-2" d="M71.92,26.6a4,4,0,0,1,0,5.65,4.09,4.09,0,0,1-5.72,0,4,4,0,0,1,.16-5.63A3.93,3.93,0,0,1,71.92,26.6Z"/><path class="cls-2" d="M71.12,24.44a4.07,4.07,0,0,1-4,4,3.73,3.73,0,0,1-3.8-3.93,4.2,4.2,0,0,1,4-4A3.81,3.81,0,0,1,71.12,24.44Z"/><path class="cls-4" d="M25.33,65.33a3.68,3.68,0,0,0,.3.39c6.7,4.82,14.6-1.1,27.9-9.73,9.86-6.89,17.19-14.14,12.83-21.45C53,52.56,34.75,61.7,25.33,65.33Z"/></g></g></svg>